<!-- Generated by IcoMoon.io -->
<svg version="1.1" xmlns="http://www.w3.org/2000/svg" width="35" height="32" viewBox="0 0 35 32" >
 <rect width="100%" height="100%" rx="6" ry="6" fill="#FFD700" />
<path d="M16.46 1.005c-0.169 0.046-0.568 0.061-0.89 0.038-0.614-0.054-1.558 0.046-2.156 0.223-0.537 0.153-0.89 0.33-1.443 0.721-0.276 0.192-0.706 0.483-0.952 0.645-0.89 0.583-1.312 1.197-1.496 2.21-0.077 0.376-0.077 0.614-0.015 0.952 0.138 0.76 0.115 0.929-0.223 1.397-0.384 0.537-0.506 0.936-0.614 1.957-0.069 0.675-0.061 0.99 0.038 1.727 0.153 1.174 0.384 2.164 0.522 2.31 0.215 0.215 0.468 0.061 0.66-0.399 0.1-0.246 0.376-0.652 0.652-0.959 0.453-0.499 0.491-0.576 0.568-1.074 0.054-0.292 0.092-0.652 0.092-0.79 0-0.315 0.177-0.905 0.361-1.212 0.161-0.284 0.292-0.284 0.99-0.046 0.76 0.261 1.22 0.376 2.333 0.591 0.652 0.13 2.839 0.13 3.338 0 1.028-0.261 1.673-0.46 2.248-0.706 0.184-0.084 0.376-0.146 0.43-0.146 0.2 0 0.568 0.79 0.66 1.42 0.184 1.305 0.223 1.412 0.714 1.957 0.253 0.276 0.545 0.691 0.66 0.921 0.215 0.453 0.284 0.537 0.468 0.537 0.299 0 0.345-0.107 0.591-1.458 0.2-1.097 0.169-3.177-0.046-3.791-0.13-0.361-0.161-0.637-0.161-1.343 0-0.652-0.038-1.028-0.146-1.412-0.299-1.044-0.844-1.888-1.489-2.31-0.437-0.299-1.366-0.583-1.865-0.583-0.376 0-0.568-0.061-0.568-0.169 0-0.084 0.821-0.038 1.473 0.077 0.307 0.054 0.345 0.046 0.307-0.054-0.138-0.361-0.675-0.691-1.658-1.021-0.637-0.215-0.798-0.238-1.888-0.261-0.66-0.015-1.328 0.008-1.496 0.054zM16.959 1.658c0 0.1-1.305 1.128-1.366 1.074-0.061-0.061 0.491-0.606 0.867-0.859s0.499-0.299 0.499-0.215zM15.348 2.149c0 0.038-0.038 0.077-0.084 0.077-0.038 0-0.054-0.038-0.031-0.077 0.023-0.046 0.061-0.077 0.084-0.077 0.015 0 0.031 0.031 0.031 0.077zM13.506 3.1c-0.054 0.169-0.123 0.414-0.161 0.537-0.153 0.506-0.015 1.627 0.269 2.202 0.207 0.414 0.138 0.514-0.1 0.146-0.629-1.005-0.706-1.949-0.238-2.878 0.276-0.545 0.391-0.553 0.23-0.008zM18.494 2.793c0 0.015-0.13 0.115-0.284 0.207-0.384 0.23-1.212 1.028-1.481 1.412-0.56 0.821-0.683 1.765-0.338 2.74 0.299 0.867 0.307 0.905 0.038 0.599-0.368-0.407-0.553-0.99-0.568-1.773-0.008-0.368-0.038-0.691-0.061-0.714-0.1-0.1-0.407 0.775-0.437 1.236-0.038 0.553 0.061 0.905 0.414 1.458 0.299 0.468 0.276 0.514-0.061 0.153-0.829-0.883-1.005-1.895-0.56-3.238l0.184-0.537v0.437c0.008 0.522 0.092 0.606 0.261 0.253 0.307-0.645 1.159-1.45 1.941-1.834 0.33-0.169 0.66-0.33 0.721-0.361 0.13-0.069 0.23-0.084 0.23-0.038zM21.026 3.146c0.084 0.054 0.054 0.077-0.146 0.077-0.315 0-0.775 0.123-1.22 0.322-0.184 0.077-0.43 0.153-0.553 0.169s-0.315 0.084-0.414 0.153c-0.315 0.2-0.399 0.138-0.153-0.115 0.123-0.123 0.43-0.33 0.683-0.453 0.391-0.192 0.553-0.23 1.074-0.23 0.338 0 0.668 0.038 0.729 0.077zM11.764 3.384c-0.107 0.107 0.084 1.581 0.269 2.095 0.092 0.253 0.253 0.591 0.361 0.76 0.269 0.399 0.207 0.506-0.115 0.207-0.146-0.13-0.33-0.269-0.407-0.315-0.13-0.069-0.138-0.061-0.092 0.1 0.123 0.391 0.775 1.189 1.297 1.581 0.315 0.238 0.207 0.284-0.2 0.092-0.445-0.207-1.289-0.905-1.466-1.22-0.138-0.246-0.069-0.33 0.1-0.123 0.192 0.23 0.215 0.023 0.046-0.33-0.23-0.46-0.376-1.013-0.338-1.251 0.031-0.169 0.038-0.161 0.177 0.1 0.207 0.414 0.292 0.368 0.215-0.115-0.092-0.591-0.069-1.289 0.054-1.588 0.061-0.138 0.123-0.215 0.138-0.161s0 0.13-0.038 0.169zM21.786 4.336c-0.614 0.223-1.473 0.806-1.366 0.921 0.031 0.023 0.23-0.023 0.445-0.115 0.445-0.176 0.545-0.184 0.545-0.077 0 0.038-0.054 0.077-0.115 0.077-0.13 0-0.591 0.253-0.929 0.506-0.399 0.292-0.744 0.691-1.013 1.159l-0.261 0.445 0.046-0.407c0.038-0.384 0.031-0.407-0.092-0.307-0.192 0.146-0.307 0.299-0.476 0.614-0.161 0.299-0.207 0.936-0.077 1.021 0.046 0.023 0.077 0.107 0.077 0.177-0.008 0.1-0.061 0.061-0.23-0.123-0.437-0.476-0.276-1.312 0.445-2.31 0.2-0.276 0.246-0.307 0.246-0.169 0 0.092-0.038 0.246-0.084 0.33-0.054 0.092-0.054 0.184-0.015 0.223 0.046 0.046 0.153-0.054 0.292-0.253 0.599-0.929 1.849-1.826 2.532-1.819h0.307l-0.276 0.107zM10.337 5.003c-0.015 0.1-0.031 0.038-0.031-0.13-0.008-0.169 0.008-0.246 0.031-0.176 0.015 0.077 0.015 0.215 0 0.307z"></path>
<path d="M0.491 12.7c-0.023 0.061-0.023 0.307 0.008 0.553 0.069 0.568 0.069 3.123 0 3.799l-0.054 0.522h1.565l-0.046-0.522c-0.084-0.959-0.138-2.931-0.092-3.123 0.038-0.153 0.1-0.192 0.284-0.192h0.23l-0.038 1.435c-0.023 0.798-0.046 1.65-0.061 1.903l-0.023 0.46 1.45 0.023 1.443 0.015-0.023-0.591c-0.023-0.476 0-0.637 0.1-0.783 0.115-0.161 0.138-0.169 0.184-0.061 0.054 0.153-0.031 0.668-0.107 0.668-0.038 0-0.038 0.161-0.015 0.361l0.038 0.368 1.788 0.023c1.496 0.015 1.819 0 2.018-0.1 0.123-0.069 0.253-0.177 0.276-0.238 0.069-0.177 0.161-0.123 0.192 0.1l0.023 0.215 1.42 0.046v-0.453c0-0.246-0.038-0.483-0.084-0.529s-0.069-0.161-0.054-0.261c0.015-0.138 0.069-0.184 0.215-0.184 0.169 0 0.192 0.031 0.169 0.23-0.015 0.123-0.046 0.445-0.061 0.706l-0.046 0.483h0.698c0.545 0 0.714-0.023 0.744-0.115 0.038-0.092 0.077-0.084 0.246 0.038 0.322 0.23 0.56 0.253 0.898 0.077 0.2-0.1 0.322-0.13 0.376-0.077 0.046 0.046 0.192 0.077 0.33 0.077 0.23 0 0.253-0.023 0.253-0.223 0-0.13-0.031-0.253-0.077-0.276-0.038-0.023-0.077-0.284-0.077-0.568 0-0.514 0.008-0.53 0.307-0.806 0.292-0.261 0.307-0.299 0.307-0.729 0-0.384-0.031-0.499-0.207-0.706-0.414-0.483-1.051-0.576-1.826-0.261-0.399 0.169-0.468 0.177-0.545 0.077-0.061-0.084-0.246-0.115-0.752-0.115h-0.66v0.453c0 0.253 0.038 0.483 0.077 0.506 0.046 0.023 0.077 0.115 0.077 0.2 0 0.115-0.054 0.146-0.238 0.146-0.223 0-0.238-0.015-0.184-0.215 0.031-0.115 0.069-0.407 0.092-0.652l0.038-0.445-1.435 0.046-0.038 0.384c-0.038 0.376-0.046 0.384-0.107 0.13-0.038-0.169-0.146-0.307-0.299-0.407-0.23-0.138-0.384-0.146-2.049-0.13l-1.803 0.023-0.023 0.284c-0.015 0.161 0.008 0.399 0.046 0.545 0.054 0.2 0.046 0.292-0.061 0.422-0.207 0.253-0.33 0.215-0.253-0.084 0.031-0.13 0.061-0.453 0.061-0.706v-0.46l-0.599-0.038c-0.729-0.046-0.775-0.008-0.714 0.553 0.153 1.335 0.146 2.057-0.031 2.057-0.107 0-0.1-2.97 0-3.031 0.084-0.054 0.107-0.645 0.031-0.836-0.038-0.107-0.261-0.123-1.65-0.123-1.343 0-1.619 0.015-1.65 0.115zM8.395 14.903c0.107 0.177-0.023 0.407-0.23 0.407-0.115 0-0.153-0.069-0.169-0.292-0.023-0.269-0.008-0.292 0.146-0.269 0.092 0.015 0.207 0.084 0.253 0.153zM14.028 15.025c0.015 0.169-0.008 0.246-0.077 0.246-0.061 0-0.253 0.069-0.43 0.153-0.169 0.084-0.345 0.153-0.384 0.153-0.1 0-0.483 0.391-0.56 0.576-0.038 0.1-0.061-0.107-0.061-0.56-0.008-0.422 0.023-0.706 0.069-0.706s0.077 0.069 0.077 0.153c0 0.138 0.054 0.153 0.491 0.153 0.483 0 0.491-0.008 0.576-0.238 0.1-0.292 0.269-0.253 0.299 0.069zM9.73 15.931c-0.023 0.89-0.031 0.952-0.092 0.568-0.054-0.307-0.13-0.476-0.284-0.622-0.207-0.192-0.215-0.207-0.077-0.33 0.077-0.069 0.177-0.269 0.23-0.437 0.161-0.537 0.246-0.238 0.223 0.821zM6.83 15.731c0 0.698-0.023 0.844-0.115 0.844s-0.115-0.138-0.115-0.79c0-0.437 0.023-0.821 0.054-0.844 0.138-0.146 0.176 0.015 0.176 0.79zM8.426 16.391c0.031 0.207-0.169 0.453-0.322 0.391-0.084-0.031-0.123-0.138-0.123-0.345 0-0.161 0.023-0.322 0.054-0.345 0.077-0.084 0.368 0.138 0.391 0.299zM14.043 16.338c0 0.215-0.169 0.361-0.315 0.269-0.107-0.061-0.084-0.192 0.061-0.353 0.177-0.2 0.253-0.169 0.253 0.084z"></path>
<path d="M17.45 12.7c-0.046 0.115-0.008 0.599 0.092 1.32 0.031 0.207 0.084 0.33 0.153 0.33 0.177 0 0.414 0.253 0.414 0.445 0 0.092 0.069 0.322 0.153 0.491 0.115 0.238 0.153 0.476 0.153 0.898 0 0.499-0.023 0.614-0.177 0.79-0.1 0.115-0.276 0.215-0.399 0.23-0.169 0.015-0.23 0.061-0.23 0.177 0 0.146 0.061 0.153 1.044 0.177 0.975 0.015 1.051 0.008 1.305-0.153 0.146-0.1 0.315-0.292 0.376-0.422 0.13-0.292 0.307-0.33 0.307-0.084 0.008 0.453 0.43 0.675 1.259 0.675 0.683 0 0.99-0.1 1.128-0.368 0.054-0.092 0.123-0.169 0.161-0.169 0.092 0 0.077 0.721-0.023 0.821-0.038 0.038-0.069 0.261-0.054 0.491l0.023 0.414h1.381l0.023-0.414c0.015-0.23-0.015-0.453-0.054-0.491-0.107-0.107-0.107-0.437-0.015-0.437 0.046 0 0.1 0.031 0.123 0.077 0.023 0.038 0.23 0.077 0.453 0.077 0.338 0 0.445-0.038 0.614-0.2 0.107-0.115 0.2-0.261 0.2-0.33 0-0.084 0.069-0.046 0.215 0.115 0.299 0.353 0.468 0.414 1.182 0.414 0.491 0 0.691-0.031 0.883-0.146 0.284-0.177 0.33-0.146 0.33 0.2v0.253h0.453c0.384 0 0.453-0.023 0.491-0.153 0.031-0.123 0.107-0.153 0.384-0.153s0.353 0.031 0.384 0.153c0.038 0.138 0.107 0.153 0.583 0.153h0.545v-0.407l0.008-0.399 0.115 0.215c0.192 0.361 0.821 0.483 1.174 0.238 0.13-0.092 0.2-0.1 0.261-0.038 0.046 0.046 0.338 0.084 0.645 0.084h0.568l-0.046-1.251c-0.069-1.964-0.1-2.072-0.652-2.356-0.506-0.261-1.42-0.161-1.803 0.2-0.177 0.161-0.2 0.238-0.177 0.591l0.023 0.399h0.499c0.46 0 0.491-0.015 0.537-0.184 0.054-0.23 0.176-0.284 0.299-0.13 0.176 0.207 0.023 0.384-0.468 0.576-0.752 0.284-0.982 0.545-1.067 1.197-0.031 0.253-0.054 0.015-0.061-0.706 0-0.652 0.023-1.105 0.069-1.136 0.046-0.023 0.077-0.238 0.077-0.46 0-0.522 0.023-0.514-1.458-0.483l-1.113 0.023-0.023 0.514c-0.015 0.361 0.008 0.522 0.069 0.522s0.069 0.084 0.031 0.284c-0.031 0.161-0.084 0.46-0.115 0.675-0.046 0.315-0.054 0.238-0.069-0.453-0.008-0.691-0.031-0.875-0.161-1.082-0.261-0.414-0.453-0.499-1.189-0.499-0.729 0-1.005 0.1-1.228 0.43l-0.13 0.207-0.1-0.238c-0.061-0.13-0.169-0.269-0.261-0.315-0.2-0.107-0.744-0.107-0.944 0-0.107 0.061-0.177 0.061-0.238 0-0.092-0.092-0.952-0.115-1.159-0.038-0.069 0.023-0.123 0.092-0.123 0.153 0 0.146-0.054 0.138-0.284-0.046-0.161-0.13-0.315-0.153-0.883-0.153-0.445 0-0.76 0.038-0.898 0.115-0.276 0.138-0.468 0.537-0.468 0.975 0 0.177-0.038 0.384-0.077 0.445-0.061 0.092-0.077 0.084-0.077-0.046 0-0.407-0.652-0.798-1.32-0.798h-0.292v-0.391c0-0.353 0.015-0.384 0.169-0.361 0.107 0.015 0.184 0.092 0.215 0.215 0.046 0.184 0.069 0.192 0.614 0.192h0.576v-1.535l-1.443-0.023c-1.243-0.015-1.443 0-1.481 0.1zM22.085 15.685c0.015 0.836 0 0.975-0.107 1.021-0.069 0.023-0.153 0-0.192-0.061-0.107-0.169-0.084-1.788 0.023-1.895 0.2-0.2 0.253-0.023 0.276 0.936zM27.426 14.826c0.092 0.361 0.046 1.642-0.061 1.796-0.092 0.123-0.13 0.13-0.215 0.046-0.107-0.107-0.146-1.627-0.046-1.88 0.077-0.184 0.269-0.161 0.322 0.038zM30.005 15.701c0 0.714-0.023 0.89-0.115 0.921-0.223 0.092-0.33-0.1-0.261-0.453 0.031-0.177 0.061-0.483 0.069-0.683 0-0.2 0.031-0.453 0.077-0.56 0.146-0.384 0.23-0.107 0.23 0.775zM24.787 15.010c0.107 0.269 0.092 1.136-0.015 1.374-0.054 0.115-0.138 0.184-0.207 0.177-0.1-0.023-0.13-0.169-0.146-0.783-0.008-0.422 0-0.813 0.015-0.867 0.069-0.169 0.276-0.115 0.353 0.1zM19.292 16.069c0 0.299-0.138 0.506-0.345 0.506-0.13 0-0.146-0.061-0.146-0.491 0-0.545 0.092-0.66 0.345-0.422 0.084 0.084 0.146 0.246 0.146 0.407zM32.844 16.307c0 0.215-0.276 0.407-0.407 0.276-0.054-0.054-0.038-0.138 0.054-0.269 0.161-0.253 0.353-0.261 0.353-0.008z"></path>
<path d="M16.015 14.404c-0.023 0.031-0.061 0.23-0.092 0.43-0.061 0.414-0.177 0.56-0.56 0.721-0.146 0.061-0.345 0.192-0.445 0.292-0.161 0.161-0.177 0.238-0.153 0.668 0.046 0.698 0.115 0.952 0.322 1.174 0.299 0.322 0.56 0.261 0.936-0.215 0.177-0.215 0.414-0.491 0.529-0.606l0.207-0.207 0.437 0.23c0.553 0.276 0.637 0.276 0.875 0.023 0.153-0.169 0.192-0.284 0.192-0.637 0-0.56-0.161-1.090-0.353-1.166-0.077-0.031-0.1-0.061-0.046-0.061 0.138-0.008 0.084-0.399-0.061-0.468-0.061-0.031-0.192-0.092-0.284-0.138-0.238-0.123-1.151-0.123-1.197 0-0.023 0.077-0.054 0.077-0.146 0-0.069-0.054-0.138-0.069-0.161-0.038zM17.458 14.665c-0.031 0.038-0.1 0.069-0.169 0.069-0.1 0-0.1-0.023-0.023-0.115 0.1-0.115 0.269-0.084 0.192 0.046zM16.737 15.217c-0.061 0.061-0.123 0.046-0.215-0.046-0.084-0.084-0.1-0.13-0.038-0.13 0.054 0 0.138-0.092 0.184-0.215l0.092-0.207 0.031 0.261c0.015 0.138-0.008 0.292-0.054 0.338zM17.573 15.225c0 0.184-0.092 0.353-0.184 0.353-0.061 0-0.084-0.084-0.061-0.23 0.031-0.23 0.246-0.33 0.246-0.123zM16.929 15.708c-0.077 0.077-0.146-0.038-0.077-0.138 0.046-0.084 0.061-0.084 0.092 0 0.015 0.054 0.008 0.115-0.015 0.138zM16.192 15.839c0 0.023-0.031 0.061-0.077 0.084-0.038 0.023-0.077 0.008-0.077-0.031 0-0.046 0.038-0.084 0.077-0.084 0.046 0 0.077 0.015 0.077 0.031zM17.343 16c-0.054 0.069-0.115 0.1-0.13 0.084-0.046-0.046 0.153-0.276 0.2-0.23 0.015 0.015-0.015 0.077-0.069 0.146zM16.806 16.123c0 0.084-0.031 0.138-0.077 0.107-0.038-0.023-0.054-0.092-0.023-0.153 0.054-0.161 0.1-0.146 0.1 0.046zM17.788 16.238c-0.054 0.115-0.107 0.161-0.123 0.115-0.038-0.123 0.038-0.315 0.13-0.315 0.054 0 0.046 0.077-0.008 0.2zM15.325 16.514c-0.023 0.061-0.046 0.038-0.046-0.046-0.008-0.084 0.015-0.13 0.038-0.1 0.023 0.023 0.031 0.092 0.008 0.146zM16.153 16.506c-0.061 0.092-0.422 0.092-0.422 0 0-0.077 0.299-0.153 0.407-0.1 0.031 0.015 0.038 0.061 0.015 0.1zM17.251 16.576c-0.015 0.046-0.061 0.046-0.138 0-0.1-0.069-0.1-0.084 0-0.153 0.115-0.077 0.192 0 0.138 0.153z"></path>
<path d="M9.876 19.315c-0.077 0.092-0.123 0.315-0.13 0.675-0.023 0.829-0.031 0.806 0.253 0.806 0.522-0.008 1.588-0.338 1.588-0.499 0-0.054-0.23-0.284-0.514-0.514-0.79-0.637-0.975-0.706-1.197-0.468z"></path>
<path d="M22.63 19.515c-0.737 0.56-0.836 0.645-0.836 0.767 0 0.177 1.021 0.514 1.558 0.514h0.284v-0.637c0-1.044-0.261-1.212-1.005-0.645z"></path>
<path d="M14.695 19.607c-0.652 0.138-1.466 0.422-3.108 1.082-0.453 0.177-1.166 0.338-1.535 0.338-0.729 0-1.274-0.292-1.212-0.652 0.054-0.276-0.153-0.146-0.284 0.169-0.146 0.338-0.146 0.545-0.008 0.875 0.422 1.005 1.949 1.696 3.484 1.581 0.614-0.046 1.535-0.253 1.665-0.368 0.038-0.038 0.123-0.069 0.192-0.069s0.668-0.276 1.335-0.614c0.675-0.338 1.312-0.614 1.427-0.614s0.744 0.269 1.389 0.599c1.266 0.645 1.696 0.806 2.601 0.982 1.113 0.215 1.98 0.1 2.97-0.391 0.936-0.46 1.366-1.143 1.174-1.842-0.054-0.192-0.161-0.384-0.238-0.43-0.13-0.069-0.146-0.046-0.146 0.184 0 0.353-0.223 0.491-0.859 0.56-0.675 0.069-1.197-0.054-2.463-0.553-2.064-0.813-2.824-1.005-3.522-0.867-0.246 0.054-0.468 0.123-0.491 0.153-0.054 0.092-0.744 0.092-0.836 0-0.092-0.077-0.744-0.238-0.936-0.23-0.077 0.008-0.345 0.054-0.599 0.107z"></path>
<path d="M16.307 21.686c-0.169 0.061-0.706 0.322-1.189 0.591-0.767 0.414-0.883 0.499-0.859 0.66 0.031 0.315 0.53 1.274 0.89 1.719 0.491 0.591 1.228 1.151 1.519 1.143 0.269-0.008 0.905-0.476 1.412-1.036 0.33-0.376 1.028-1.658 1.028-1.903 0-0.1-1.013-0.652-2.241-1.236-0.161-0.077-0.169-0.069-0.56 0.061zM15.447 23.298c0.031 0.33 0.13 0.775 0.215 0.975 0.084 0.207 0.138 0.391 0.115 0.414-0.177 0.184-1.136-1.504-0.99-1.734 0.092-0.146 0.414-0.322 0.522-0.292 0.046 0.015 0.1 0.299 0.138 0.637zM18.417 23.559c0 0.038-0.038 0.077-0.084 0.077-0.038 0-0.054-0.038-0.031-0.077 0.023-0.046 0.061-0.077 0.084-0.077 0.015 0 0.031 0.031 0.031 0.077zM18.233 23.919c-0.077 0.077-0.146-0.038-0.077-0.138 0.046-0.084 0.061-0.084 0.092 0 0.015 0.054 0.008 0.115-0.015 0.138z"></path>
<path d="M13.353 23.022c-0.23 0.077-0.752 0.184-1.151 0.246l-0.729 0.107 0.023 0.384c0.023 0.399 0.153 0.829 0.407 1.389 0.153 0.338 0.161 0.345 0.46 0.307 0.714-0.092 1.834-0.852 1.957-1.312 0.046-0.2-0.33-1.212-0.468-1.235-0.038-0.008-0.269 0.046-0.499 0.115zM12.079 23.651c0.077 0.238 0.115 1.059 0.054 1.059-0.13 0-0.437-1.005-0.338-1.105 0.084-0.077 0.253-0.054 0.284 0.046z"></path>
<path d="M19.215 23.29c-0.307 0.714-0.315 0.821-0.015 1.159 0.138 0.161 0.307 0.345 0.368 0.399 0.223 0.2 1.22 0.629 1.45 0.629 0.2 0 0.253-0.046 0.361-0.292 0.2-0.476 0.476-1.343 0.506-1.588 0.023-0.207 0-0.23-0.207-0.253-0.453-0.038-1.374-0.23-2.095-0.445-0.146-0.046-0.192 0-0.368 0.391zM21.51 23.666c0.084 0.215-0.169 0.967-0.33 0.967-0.061 0-0.031-0.744 0.046-0.982 0.038-0.123 0.238-0.115 0.284 0.015z"></path>
<path d="M10.674 23.244c-0.146 0.092-0.069 1.596 0.107 2.118 0.338 0.975 0.698 1.55 1.113 1.765 0.192 0.1 0.238 0.092 0.553-0.107 0.414-0.269 0.468-0.376 0.399-0.913l-0.054-0.414-0.391 0.046c-0.33 0.046-0.422 0.031-0.514-0.084-0.253-0.292-0.683-1.55-0.683-1.98 0-0.177-0.238-0.499-0.361-0.499-0.038 0-0.107 0.031-0.169 0.069z"></path>
<path d="M22.27 23.298c-0.107 0.077-0.169 0.192-0.169 0.338 0 0.668-0.522 2.049-0.798 2.11-0.092 0.023-0.299 0.031-0.468 0.023l-0.299-0.023-0.069 0.407c-0.054 0.315-0.038 0.445 0.046 0.583 0.13 0.2 0.568 0.43 0.813 0.43 0.299 0 0.752-0.606 1.082-1.458 0.338-0.852 0.453-2.302 0.2-2.471-0.115-0.084-0.146-0.077-0.338 0.061z"></path>
<path d="M18.287 24.902c-0.223 0.269-0.583 0.622-0.806 0.79-0.629 0.46-0.637 0.483-0.483 0.952 0.192 0.606 0.683 1.243 1.212 1.596 0.622 0.414 0.898 0.414 1.197 0 0.514-0.714 1.005-2.371 0.783-2.64-0.054-0.061-0.276-0.215-0.499-0.345-0.223-0.123-0.499-0.338-0.622-0.483-0.115-0.138-0.253-0.276-0.299-0.307s-0.253 0.153-0.483 0.437zM19.63 25.631c0.284 0.177 0.284 0.2 0.13 0.875-0.153 0.645-0.261 0.89-0.384 0.844-0.077-0.031-0.077-0.115-0.023-0.361 0.069-0.307 0.046-0.821-0.061-1.305-0.061-0.246 0-0.261 0.338-0.054z"></path>
<path d="M14.12 24.848c-0.192 0.2-0.483 0.43-0.652 0.514-0.299 0.153-0.307 0.169-0.33 0.606-0.038 0.668 0.414 1.911 0.89 2.44 0.522 0.599 2.172-0.836 2.371-2.057 0.038-0.223 0.008-0.269-0.422-0.553-0.422-0.292-1.243-1.12-1.243-1.259 0-0.169-0.307-0.015-0.614 0.307zM13.989 25.761c-0.031 0.161-0.054 0.591-0.046 0.959 0.023 0.913-0.1 0.905-0.33-0.015-0.169-0.691-0.146-0.967 0.107-1.097 0.315-0.169 0.338-0.153 0.269 0.153z"></path>
<path d="M20.313 27.096c-0.069 0.046-0.13 0.115-0.13 0.169-0.008 0.207-0.529 1.090-0.821 1.389-0.169 0.169-0.338 0.391-0.361 0.476-0.069 0.223 0.13 0.414 0.414 0.414 0.422 0 1.374-1.174 1.496-1.849 0.046-0.246 0.023-0.292-0.207-0.468-0.192-0.146-0.292-0.184-0.391-0.13z"></path>
<path d="M12.57 27.25c-0.276 0.2-0.269 0.368 0.023 0.936 0.276 0.537 0.483 0.806 0.913 1.166 0.276 0.23 0.338 0.253 0.53 0.184 0.123-0.046 0.246-0.13 0.269-0.192 0.054-0.138-0.023-0.491-0.1-0.491-0.153 0-0.583-0.56-0.867-1.12-0.338-0.691-0.422-0.744-0.767-0.483z"></path>
<path d="M16.107 27.718c-0.33 0.368-0.675 0.652-0.998 0.829-0.269 0.153-0.499 0.33-0.514 0.399-0.054 0.292 0.33 0.883 1.036 1.573 0.783 0.775 0.982 0.883 1.305 0.668 0.43-0.276 1.481-1.389 1.627-1.727 0.246-0.529 0.215-0.629-0.223-0.836-0.253-0.123-0.599-0.407-0.998-0.821-0.338-0.353-0.637-0.637-0.668-0.637-0.038 0-0.292 0.253-0.568 0.553zM18.11 29.007c0 0.192-0.292 0.66-0.568 0.913-0.161 0.146-0.2 0.161-0.2 0.061 0-0.069 0.038-0.146 0.077-0.169 0.046-0.023 0.077-0.1 0.077-0.161 0-0.246 0.322-0.798 0.468-0.798 0.092 0 0.146 0.054 0.146 0.153zM15.432 29.468c0.038 0 0.069 0.061 0.069 0.13 0 0.115-0.015 0.107-0.115-0.023-0.061-0.077-0.107-0.2-0.107-0.261 0.008-0.084 0.023-0.077 0.046 0.015 0.015 0.077 0.069 0.138 0.107 0.138zM15.632 29.867c-0.023 0.061-0.046 0.038-0.046-0.046-0.008-0.084 0.015-0.13 0.038-0.1 0.023 0.023 0.031 0.092 0.008 0.146z"></path>
</svg>
